<?xml version="1.0" standalone="no"?><!DOCTYPE svg PUBLIC "-//W3C//DTD SVG 1.1//EN" "http://www.w3.org/Graphics/SVG/1.1/DTD/svg11.dtd"><svg t="1730883039278" class="icon" viewBox="0 0 1024 1024" version="1.1" xmlns="http://www.w3.org/2000/svg" p-id="10267" xmlns:xlink="http://www.w3.org/1999/xlink" width="200" height="200"><path d="M93.115733 418.884267h23.210667a162.884267 162.884267 0 0 1 0 325.8368h-23.210667v186.1632H279.210667v-26.146134a160.017067 160.017067 0 1 1 320.034133 0v26.146134h145.408V651.741867l93.047467-0.136534a93.115733 93.115733 0 0 0 0-186.1632h-93.115734V279.278933H558.4896V186.1632a93.115733 93.115733 0 1 0-186.1632 0v93.115733h-279.210667v139.605334zM465.442133 0a186.1632 186.1632 0 0 1 186.1632 186.1632h186.1632v186.231467a186.1632 186.1632 0 0 1 0 372.394666V1024H506.197333v-119.261867a66.901333 66.901333 0 1 0-133.802666 0V1024H0V651.605333h116.3264a69.8368 69.8368 0 0 0 0-139.605333H0V186.1632h279.210667A186.1632 186.1632 0 0 1 465.5104 0z" p-id="10268"></path></svg>