<?xml version="1.0" standalone="no"?><!DOCTYPE svg PUBLIC "-//W3C//DTD SVG 1.1//EN" "http://www.w3.org/Graphics/SVG/1.1/DTD/svg11.dtd"><svg t="1730882546688" class="icon" viewBox="0 0 1024 1024" version="1.1" xmlns="http://www.w3.org/2000/svg" p-id="7330" xmlns:xlink="http://www.w3.org/1999/xlink" width="200" height="200"><path d="M507.904 1.024a507.904 507.904 0 1 0 507.904 507.904A505.969778 505.969778 0 0 0 507.904 1.024z m71.452444 568.206222L254.293333 778.922667a9.159111 9.159111 0 0 1-7.224889 0h-9.159111c-1.991111 0-4.551111-9.159111 0-13.767111l204.458667-321.763556 327.68-211.683556a11.150222 11.150222 0 0 1 13.767111 0c0 4.551111 0 11.150222 4.551111 11.150223l-209.009778 326.371555z" fill="#9B9B9B" p-id="7331"></path><path d="M507.904 460.458667a48.469333 48.469333 0 1 0 48.469333 48.469333 47.843556 47.843556 0 0 0-48.469333-48.469333z" fill="#9B9B9B" p-id="7332"></path></svg>