<?xml version="1.0" standalone="no"?><!DOCTYPE svg PUBLIC "-//W3C//DTD SVG 1.1//EN" "http://www.w3.org/Graphics/SVG/1.1/DTD/svg11.dtd"><svg t="1730882568399" class="icon" viewBox="0 0 1024 1024" version="1.1" xmlns="http://www.w3.org/2000/svg" p-id="8309" xmlns:xlink="http://www.w3.org/1999/xlink" width="200" height="200"><path d="M892.905 119.897H127.134c-17.58 0-31.91 14.603-31.91 32.52v715.581c0 17.916 14.33 32.519 31.91 32.519h765.77c17.58 0 31.911-14.603 31.911-32.519V152.416c0-17.916-14.33-32.519-31.91-32.519zM254.762 770.364h-95.718v-97.57h95.718z m0-195.139h-95.718v-97.57h95.718z m0-195.138h-95.718v-97.583h95.718z m401.644 151.46L448.917 654.879a23.664 23.664 0 0 1-10.757 2.59 24.22 24.22 0 0 1-12.57-3.548 23.91 23.91 0 0 1-11.302-20.324V386.844a23.807 23.807 0 0 1 34.59-21.334l207.489 123.33a23.871 23.871 0 0 1 0 42.72z m204.537 238.856h-95.667v-97.608h95.719z m0-195.139h-95.667v-97.608h95.719z m0-195.139h-95.667v-97.62h95.719z" p-id="8310"></path></svg>